<svg style="display: none">
      <symbol
        id="logo"
        width="120"
        height="46"
        viewBox="0 0 120 46"
        xmlns="http://www.w3.org/2000/svg"
      >
     
          <path
            d="M0.534643 14.7687C0.594196 22.9275 0.683526 29.6571 0.743079 29.7166C0.951516 29.925 6.69841 27.3047 7.29395 26.7389C7.8597 26.203 7.88948 25.7265 7.97881 16.5255L8.06814 6.84812H15.4825C19.5619 6.84812 22.9565 6.96723 23.0458 7.08633C23.1351 7.23522 22.7183 7.59254 22.1227 7.86053C19.9193 8.90271 16.9416 11.0466 16.3758 11.9697C15.8399 12.863 15.7803 13.4883 15.7803 19.4139C15.7803 25.6968 15.7505 25.9052 15.1252 26.6198C14.7083 27.0665 11.9391 28.3767 7.88948 30.0739C4.2865 31.5925 1.13018 32.9325 0.891963 33.0814C0.623973 33.26 3.24432 33.3196 7.88948 33.26C15.1252 33.1707 15.3932 33.1409 17.686 32.3667C24.5049 29.9846 27.9887 24.7141 27.9887 16.8531C27.959 8.18807 24.1178 2.85805 16.4652 0.86301C14.5892 0.386583 12.8026 0.2377 7.29395 0.0888163L0.445312 -0.0898438L0.534643 14.7687ZM40.1972 12.5057C37.9639 12.863 36.2667 13.4883 34.6885 14.5901C29.8647 17.925 29.3287 25.9945 33.7059 29.925C38.2915 34.064 47.2542 34.0342 51.6016 29.8357C53.4478 28.0789 54.2815 26.1732 54.4304 23.3444C54.6389 19.4139 53.3585 16.5851 50.4404 14.5603C47.9093 12.8332 43.681 11.9697 40.1972 12.5057ZM45.1103 13.667C48.3262 15.0963 49.9639 19.7414 49.16 25.0417C48.4453 29.7166 46.5396 31.8903 42.9962 32.0987C40.5247 32.2774 38.7977 31.4734 37.5471 29.5677C36.3262 27.7216 35.9391 25.7265 36.088 21.8556C36.2071 18.4015 36.8026 16.4362 38.2021 14.9176C39.7803 13.1906 42.8473 12.6248 45.1103 13.667ZM66.2518 12.9226C63.8696 13.5181 62.6488 14.1732 61.0706 15.6322C58.9267 17.6571 58.2121 19.4139 58.2121 22.9275C58.2121 25.3097 58.3312 25.9945 58.9565 27.2451C59.9689 29.27 61.6364 30.8481 63.959 31.9499C65.7456 32.7836 66.3113 32.8729 69.3783 32.992C72.3262 33.1111 73.0706 33.0218 74.7083 32.4561C79.4726 30.8481 81.8845 27.5727 81.8845 22.7489C81.8845 17.8357 78.5198 13.935 73.3088 12.8332C71.284 12.4164 68.1575 12.4461 66.2518 12.9226ZM72.9515 13.9945C74.887 14.9772 76.0185 17.0615 76.5247 20.5156C77.0905 24.595 75.9887 29.1806 73.9639 30.9672C70.9267 33.6174 65.954 32.4858 64.2567 28.7042C63.3932 26.7389 63.0359 23.3146 63.423 20.6049C64.0781 15.7513 66.1922 13.399 69.8845 13.399C71.1947 13.399 72.1476 13.5777 72.9515 13.9945ZM107.135 13.2799C103.562 14.3816 102.52 17.9548 105.081 20.5156C105.676 21.1112 107.939 22.5107 110.113 23.6422C112.763 25.0417 114.43 26.1136 115.145 26.8878C116.098 27.9598 116.187 28.198 116.038 29.3891C115.77 31.8903 113.716 33.1111 110.887 32.4858C109.13 32.0987 107.641 30.729 107.314 29.2402C106.718 26.4709 106.242 25.9052 104.545 25.9052C103.502 25.9052 102.728 26.5901 102.728 27.5131C102.728 28.5255 104.336 30.8481 105.646 31.7116C107.344 32.8432 109.339 33.3494 111.959 33.3494C115.889 33.3494 118.421 32.2178 119.433 29.9548C120.148 28.3469 120.148 26.9772 119.373 25.399C118.629 23.8506 117.438 22.9871 112.703 20.6049C110.738 19.6223 108.743 18.4015 108.267 17.8953C106.063 15.5727 108.296 13.0417 111.959 13.6968C113.448 13.9647 114.49 14.9176 114.966 16.3469C115.651 18.4908 117.259 19.3543 118.659 18.2824C119.224 17.8655 119.224 17.8357 118.659 16.7935C116.902 13.5181 111.602 11.9102 107.135 13.2799ZM85.5471 16.1384C85.815 18.9672 85.6364 29.7762 85.2791 31.5032L85.1004 32.4561H90.6686L90.5793 26.0839L90.49 19.6819L92.485 18.0441C94.6885 16.2278 95.7902 15.8705 97.5471 16.3469C98.2021 16.5255 98.9466 16.6744 99.2443 16.6744C100.108 16.6744 101.239 15.3345 101.239 14.2923V13.399H99.2443C96.5644 13.4288 95.1649 14.0839 92.5446 16.5851L90.4304 18.6099L90.6091 15.9896L90.7878 13.399H85.2791L85.5471 16.1384ZM68.1873 40.2575V41.8059L67.5917 41.1509C66.7282 40.2278 64.9416 40.2576 64.0781 41.1806C63.155 42.1633 63.1848 43.8605 64.1674 44.8134C65.0607 45.7365 66.6091 45.796 67.5322 44.9623C68.0681 44.4561 68.1873 44.4263 68.1873 44.8134C68.1873 45.0516 68.3361 45.26 68.485 45.26C68.6637 45.26 68.7828 43.9796 68.7828 41.9846C68.7828 39.9896 68.6637 38.7092 68.485 38.7092C68.3361 38.7092 68.1873 39.394 68.1873 40.2575ZM67.4428 41.8357C68.3361 42.6992 68.3659 43.1757 67.6513 44.0987C66.5793 45.3791 64.0185 44.6347 64.0185 43.0268C64.0185 41.27 66.1327 40.4958 67.4428 41.8357ZM44.3659 39.6322C44.3659 39.9896 44.1277 40.3171 43.7704 40.4064C43.4428 40.4958 43.1748 40.7638 43.1748 40.9722C43.1748 41.2104 43.4428 41.3891 43.7704 41.3891C44.3064 41.3891 44.3659 41.5975 44.3659 43.1161C44.3659 45.0218 44.6935 45.5578 45.8547 45.5578C46.8076 45.5578 47.3436 45.0516 47.3138 44.2178C47.3138 43.8903 47.2245 43.801 47.1351 44.0094C47.0756 44.2178 46.7183 44.5156 46.3907 44.6943C45.4677 45.2005 44.9614 44.5156 44.9614 42.8481C44.9614 41.4188 44.9912 41.3891 45.8547 41.3891C46.4503 41.3891 46.748 41.2402 46.748 40.9424C46.748 40.6446 46.4503 40.4958 45.8547 40.4958C45.1103 40.4958 44.9614 40.3767 44.9614 39.7513C44.9614 39.3345 44.8423 39.0069 44.6637 39.0069C44.5148 39.0069 44.3659 39.2749 44.3659 39.6322ZM74.6488 39.2154C74.2617 39.5727 74.4404 39.9002 75.0359 39.9002C75.3634 39.9002 75.6314 39.6918 75.6314 39.4536C75.6314 39.0069 75.0061 38.8283 74.6488 39.2154ZM34.361 40.734C33.7952 41.1211 33.6761 41.9548 34.093 42.4015C34.3312 42.6397 35.0458 42.9077 35.7009 43.0268C37.3684 43.2948 37.7853 43.8903 36.7729 44.5454C36.1475 44.9623 35.8796 44.992 35.2542 44.6943C34.8374 44.5156 34.4205 44.0987 34.3312 43.7712C34.1525 43.0566 33.6463 43.2948 33.6463 44.069C33.6463 45.3494 36.1178 46.0342 37.4577 45.0814C38.7083 44.2178 38.1724 43.2948 36.1475 42.7886C34.4801 42.3717 34.0036 41.5379 35.2542 41.2104C36.2667 40.9722 36.9515 41.2402 37.1302 41.9846C37.3386 42.8183 37.815 42.729 37.815 41.8357C37.815 41.4188 37.5768 40.9722 37.2493 40.7935C36.5644 40.4362 34.8374 40.4064 34.361 40.734ZM52.8225 40.9424C52.4949 41.7762 52.882 44.337 53.4478 44.9623C54.1327 45.7365 55.3833 45.7067 56.3957 44.9325C57.021 44.4263 57.1699 44.3965 57.1699 44.7836C57.1699 45.0516 57.3188 45.26 57.4677 45.26C57.6463 45.26 57.7654 44.2774 57.7654 42.8779C57.7654 40.1384 57.3188 39.662 57.1103 42.1633C56.9614 44.0392 56.4255 44.6645 55.0855 44.6645C53.954 44.6645 53.5967 44.1285 53.5967 42.4015C53.5967 40.8233 53.15 40.0193 52.8225 40.9424ZM74.7381 42.8779C74.7381 44.2774 74.8572 45.26 75.0359 45.26C75.2145 45.26 75.3337 44.2774 75.3337 42.8779C75.3337 41.4784 75.2145 40.4958 75.0359 40.4958C74.8572 40.4958 74.7381 41.4784 74.7381 42.8779ZM81.8845 41.0913C80.6339 42.3419 80.9019 44.5454 82.361 45.2303C85.4577 46.6298 88.1376 42.9077 85.4875 40.8829C84.7133 40.2873 82.5694 40.4064 81.8845 41.0913ZM84.8622 41.3891C86.351 42.193 86.1724 44.069 84.5644 44.6049C83.4627 44.992 82.361 44.6645 81.9143 43.801C81.4379 42.9375 81.4974 42.6397 82.3312 41.8357C83.1054 41.0317 83.9391 40.9126 84.8622 41.3891Z"
          />
        
      </symbol>

      <symbol
        id="search"
        viewBox="0 0 32 32"
        fill="none"
        xmlns="http://www.w3.org/2000/svg"
      >
        <path
          d="M15.3346 27.9974C22.3302 27.9974 28.0013 22.3263 28.0013 15.3307C28.0013 8.33512 22.3302 2.66406 15.3346 2.66406C8.33903 2.66406 2.66797 8.33512 2.66797 15.3307C2.66797 22.3263 8.33903 27.9974 15.3346 27.9974Z"
          stroke="#282828"
          stroke-width="1.5"
          stroke-linecap="round"
          stroke-linejoin="round"
        />
        <path
          d="M29.3346 29.3307L26.668 26.6641"
          stroke="#282828"
          stroke-width="1.5"
          stroke-linecap="round"
          stroke-linejoin="round"
        />
      </symbol>

      <symbol
        id="menu"
        width="32"
        height="32"
        viewBox="0 0 32 32"
        fill="none"
        xmlns="http://www.w3.org/2000/svg"
      >
        <path
          d="M4 9.33594H28"
          stroke="#282828"
          stroke-width="1.5"
          stroke-linecap="round"
        />
        <path
          d="M4 16H28"
          stroke="#282828"
          stroke-width="1.5"
          stroke-linecap="round"
        />
        <path
          d="M4 22.6641H28"
          stroke="#282828"
          stroke-width="1.5"
          stroke-linecap="round"
        />
      </symbol>
</svg>