<svg style="display: none">
      <symbol id="logo" viewBox="0 0 120 46" xmlns="http://www.w3.org/2000/svg">
        <g clip-path="url(#clip0_594_6449)">
          <path
            d="M0.534643 14.7648C0.594196 22.9236 0.683526 29.6532 0.743079 29.7127C0.951516 29.9211 6.69841 27.3008 7.29395 26.735C7.8597 26.1991 7.88948 25.7226 7.97881 16.5216L8.06814 6.84421H15.4825C19.5619 6.84421 22.9565 6.96332 23.0458 7.08243C23.1351 7.23131 22.7183 7.58863 22.1227 7.85662C19.9193 8.89881 16.9416 11.0427 16.3758 11.9658C15.8399 12.8591 15.7803 13.4844 15.7803 19.41C15.7803 25.6929 15.7505 25.9013 15.1252 26.6159C14.7083 27.0626 11.9391 28.3728 7.88948 30.07C4.2865 31.5886 1.13018 32.9286 0.891963 33.0775C0.623973 33.2561 3.24432 33.3157 7.88948 33.2561C15.1252 33.1668 15.3932 33.137 17.686 32.3628C24.5049 29.9807 27.9887 24.7102 27.9887 16.8492C27.959 8.18417 24.1178 2.85414 16.4652 0.859104C14.5892 0.382677 12.8026 0.233793 7.29395 0.0849101L0.445312 -0.09375L0.534643 14.7648ZM40.1972 12.5018C37.9639 12.8591 36.2667 13.4844 34.6885 14.5862C29.8647 17.9211 29.3287 25.9906 33.7059 29.9211C38.2915 34.0601 47.2542 34.0303 51.6016 29.8318C53.4478 28.075 54.2815 26.1693 54.4304 23.3405C54.6389 19.41 53.3585 16.5812 50.4404 14.5564C47.9093 12.8293 43.681 11.9658 40.1972 12.5018ZM45.1103 13.6631C48.3262 15.0924 49.9639 19.7375 49.16 25.0378C48.4453 29.7127 46.5396 31.8864 42.9962 32.0948C40.5247 32.2735 38.7977 31.4695 37.5471 29.5638C36.3262 27.7177 35.9391 25.7226 36.088 21.8517C36.2071 18.3976 36.8026 16.4323 38.2021 14.9137C39.7803 13.1866 42.8473 12.6209 45.1103 13.6631ZM66.2518 12.9187C63.8696 13.5142 62.6488 14.1693 61.0706 15.6283C58.9267 17.6531 58.2121 19.41 58.2121 22.9236C58.2121 25.3058 58.3312 25.9906 58.9565 27.2412C59.9689 29.2661 61.6364 30.8442 63.959 31.946C65.7456 32.7797 66.3113 32.869 69.3783 32.9881C72.3262 33.1072 73.0706 33.0179 74.7083 32.4522C79.4726 30.8442 81.8845 27.5688 81.8845 22.745C81.8845 17.8318 78.5198 13.9311 73.3088 12.8293C71.284 12.4125 68.1575 12.4422 66.2518 12.9187ZM72.9515 13.9906C74.887 14.9732 76.0185 17.0576 76.5247 20.5117C77.0905 24.5911 75.9887 29.1767 73.9639 30.9633C70.9267 33.6134 65.954 32.4819 64.2567 28.7003C63.3932 26.735 63.0359 23.3107 63.423 20.601C64.0781 15.7474 66.1922 13.3951 69.8845 13.3951C71.1947 13.3951 72.1476 13.5737 72.9515 13.9906ZM107.135 13.276C103.562 14.3777 102.52 17.9509 105.081 20.5117C105.676 21.1072 107.939 22.5067 110.113 23.6383C112.763 25.0378 114.43 26.1097 115.145 26.8839C116.098 27.9559 116.187 28.1941 116.038 29.3852C115.77 31.8864 113.716 33.1072 110.887 32.4819C109.13 32.0948 107.641 30.7251 107.314 29.2363C106.718 26.467 106.242 25.9013 104.545 25.9013C103.502 25.9013 102.728 26.5862 102.728 27.5092C102.728 28.5216 104.336 30.8442 105.646 31.7077C107.344 32.8393 109.339 33.3455 111.959 33.3455C115.889 33.3455 118.421 32.2139 119.433 29.9509C120.148 28.343 120.148 26.9732 119.373 25.3951C118.629 23.8467 117.438 22.9832 112.703 20.601C110.738 19.6184 108.743 18.3976 108.267 17.8914C106.063 15.5688 108.296 13.0378 111.959 13.6929C113.448 13.9608 114.49 14.9137 114.966 16.343C115.651 18.4869 117.259 19.3504 118.659 18.2785C119.224 17.8616 119.224 17.8318 118.659 16.7896C116.902 13.5142 111.602 11.9062 107.135 13.276ZM85.5471 16.1345C85.815 18.9633 85.6364 29.7723 85.2791 31.4993L85.1004 32.4522H90.6686L90.5793 26.0799L90.49 19.678L92.485 18.0402C94.6885 16.2239 95.7902 15.8665 97.5471 16.343C98.2021 16.5216 98.9466 16.6705 99.2443 16.6705C100.108 16.6705 101.239 15.3306 101.239 14.2884V13.3951H99.2443C96.5644 13.4249 95.1649 14.0799 92.5446 16.5812L90.4304 18.606L90.6091 15.9857L90.7878 13.3951H85.2791L85.5471 16.1345ZM68.1873 40.2536V41.802L67.5917 41.1469C66.7282 40.2239 64.9416 40.2536 64.0781 41.1767C63.155 42.1594 63.1848 43.8566 64.1674 44.8095C65.0607 45.7326 66.6091 45.7921 67.5322 44.9584C68.0681 44.4522 68.1873 44.4224 68.1873 44.8095C68.1873 45.0477 68.3361 45.2561 68.485 45.2561C68.6637 45.2561 68.7828 43.9757 68.7828 41.9807C68.7828 39.9857 68.6637 38.7053 68.485 38.7053C68.3361 38.7053 68.1873 39.3901 68.1873 40.2536ZM67.4428 41.8318C68.3361 42.6953 68.3659 43.1718 67.6513 44.0948C66.5793 45.3752 64.0185 44.6308 64.0185 43.0229C64.0185 41.2661 66.1327 40.4919 67.4428 41.8318ZM44.3659 39.6283C44.3659 39.9857 44.1277 40.3132 43.7704 40.4025C43.4428 40.4919 43.1748 40.7598 43.1748 40.9683C43.1748 41.2065 43.4428 41.3852 43.7704 41.3852C44.3064 41.3852 44.3659 41.5936 44.3659 43.1122C44.3659 45.0179 44.6935 45.5539 45.8547 45.5539C46.8076 45.5539 47.3436 45.0477 47.3138 44.2139C47.3138 43.8864 47.2245 43.7971 47.1351 44.0055C47.0756 44.2139 46.7183 44.5117 46.3907 44.6904C45.4677 45.1966 44.9614 44.5117 44.9614 42.8442C44.9614 41.4149 44.9912 41.3852 45.8547 41.3852C46.4503 41.3852 46.748 41.2363 46.748 40.9385C46.748 40.6407 46.4503 40.4919 45.8547 40.4919C45.1103 40.4919 44.9614 40.3728 44.9614 39.7474C44.9614 39.3306 44.8423 39.003 44.6637 39.003C44.5148 39.003 44.3659 39.271 44.3659 39.6283ZM74.6488 39.2115C74.2617 39.5688 74.4404 39.8963 75.0359 39.8963C75.3634 39.8963 75.6314 39.6879 75.6314 39.4497C75.6314 39.003 75.0061 38.8244 74.6488 39.2115ZM34.361 40.7301C33.7952 41.1172 33.6761 41.9509 34.093 42.3976C34.3312 42.6358 35.0458 42.9038 35.7009 43.0229C37.3684 43.2909 37.7853 43.8864 36.7729 44.5415C36.1475 44.9584 35.8796 44.9881 35.2542 44.6904C34.8374 44.5117 34.4205 44.0948 34.3312 43.7673C34.1525 43.0527 33.6463 43.2909 33.6463 44.0651C33.6463 45.3455 36.1178 46.0303 37.4577 45.0775C38.7083 44.2139 38.1724 43.2909 36.1475 42.7847C34.4801 42.3678 34.0036 41.534 35.2542 41.2065C36.2667 40.9683 36.9515 41.2363 37.1302 41.9807C37.3386 42.8144 37.815 42.7251 37.815 41.8318C37.815 41.4149 37.5768 40.9683 37.2493 40.7896C36.5644 40.4323 34.8374 40.4025 34.361 40.7301ZM52.8225 40.9385C52.4949 41.7723 52.882 44.333 53.4478 44.9584C54.1327 45.7326 55.3833 45.7028 56.3957 44.9286C57.021 44.4224 57.1699 44.3926 57.1699 44.7797C57.1699 45.0477 57.3188 45.2561 57.4677 45.2561C57.6463 45.2561 57.7654 44.2735 57.7654 42.874C57.7654 40.1345 57.3188 39.6581 57.1103 42.1594C56.9614 44.0353 56.4255 44.6606 55.0855 44.6606C53.954 44.6606 53.5967 44.1246 53.5967 42.3976C53.5967 40.8194 53.15 40.0154 52.8225 40.9385ZM74.7381 42.874C74.7381 44.2735 74.8572 45.2561 75.0359 45.2561C75.2145 45.2561 75.3337 44.2735 75.3337 42.874C75.3337 41.4745 75.2145 40.4919 75.0359 40.4919C74.8572 40.4919 74.7381 41.4745 74.7381 42.874ZM81.8845 41.0874C80.6339 42.338 80.9019 44.5415 82.361 45.2263C85.4577 46.6259 88.1376 42.9038 85.4875 40.879C84.7133 40.2834 82.5694 40.4025 81.8845 41.0874ZM84.8622 41.3852C86.351 42.1891 86.1724 44.0651 84.5644 44.601C83.4627 44.9881 82.361 44.6606 81.9143 43.7971C81.4379 42.9335 81.4974 42.6358 82.3312 41.8318C83.1054 41.0278 83.9391 40.9087 84.8622 41.3852Z"
            
          />
        </g>
     
      </symbol>

      <symbol
        id="search"
        viewBox="0 0 32 32"
        fill="none"
        xmlns="http://www.w3.org/2000/svg"
      >
        <path
          d="M15.3346 27.9974C22.3302 27.9974 28.0013 22.3263 28.0013 15.3307C28.0013 8.33512 22.3302 2.66406 15.3346 2.66406C8.33903 2.66406 2.66797 8.33512 2.66797 15.3307C2.66797 22.3263 8.33903 27.9974 15.3346 27.9974Z"
       
          stroke-width="1.5"
          stroke-linecap="round"
          stroke-linejoin="round"
        />
        <path
          d="M29.3346 29.3307L26.668 26.6641"
          
          stroke-width="1.5"
          stroke-linecap="round"
          stroke-linejoin="round"
        />
      </symbol>

      <symbol
        id="menu"

        viewBox="0 0 32 32"
        fill="none"
        xmlns="http://www.w3.org/2000/svg"
      >
        <path
          d="M4 9.33594H28"
          stroke="#282828"
          stroke-width="1.5"
          stroke-linecap="round"
        />
        <path
          d="M4 16H28"
          stroke="#282828"
          stroke-width="1.5"
          stroke-linecap="round"
        />
        <path
          d="M4 22.6641H28"
          stroke="#282828"
          stroke-width="1.5"
          stroke-linecap="round"
        />
      </symbol>

      <symbol id="close" viewBox="0 0 32 32" xmlns="http://www.w3.org/2000/svg">
        <path
          d="M6.66797 6.66406L25.3334 25.3295"
          stroke-width="1.5"
          stroke-linecap="round"
          stroke-linejoin="round"
        />
        <path
          d="M6.67053 25.3295L25.3359 6.66406"
          stroke-width="1.5"
          stroke-linecap="round"
          stroke-linejoin="round"
        />
      </symbol>    

      <symbol
        id="arrow-to-up"
        viewBox="0 0 18 18"
        fill="none"
        xmlns="http://www.w3.org/2000/svg"
      >
        <path d="M1 1H17M17 1V17M17 1L1 17" stroke-width="1.5" />
      </symbol>
</svg>